<?xml version="1.0" encoding="utf-8"?>
<svg width="192px" height="192px" viewBox="0 0 192 192" version="1.1" xmlns:xlink="http://www.w3.org/1999/xlink" xmlns="http://www.w3.org/2000/svg">
  <defs>
    <path d="M0 0L192 0L192 192L0 192L0 0Z" id="path_1" />
    <clipPath id="mask_1">
      <use xlink:href="#path_1" />
    </clipPath>
  </defs>
  <g id="Puzzle-icon">
    <path d="M0 0L192 0L192 192L0 192L0 0Z" id="Background" fill="none" fill-rule="evenodd" stroke="none" />
    <g clip-path="url(#mask_1)">
      <path d="M186 21C186 12.75 179.25 6 171 6L96 6L96 27.6C96 31.05 99.75 33.3 102.75 31.5C106.05 29.55 109.95 28.5 114 28.5C126.75 28.5 137.1 39.15 136.5 52.05C135.9 63.6 126.45 73.05 114.9 73.35C110.4 73.5 106.2 72.45 102.75 70.35C99.75 68.55 96 70.8 96 74.25L96 96L74.4 96C70.95 96 68.7 92.25 70.5 89.25C72.6 85.65 73.65 81.45 73.5 77.1C73.05 65.55 63.6 56.1 52.2 55.5C39.15 54.9 28.5 65.25 28.5 78C28.5 82.2 29.55 85.95 31.5 89.25C33.3 92.25 31.05 96 27.6 96L6 96L6 171C6 179.25 12.75 186 21 186L96 186L96 186L171 186C179.25 186 186 179.25 186 171L186 21L186 21Z" id="Shape" fill="#FFFFFF" stroke="none" />
      <path d="M96 190.5L21 190.5C10.2 190.5 1.5 181.8 1.5 171L1.5 96C1.5 93.45 3.45 91.5 6 91.5L27.6 91.5C25.2 87.45 24 82.8 24 78C24 70.5 27 63.6 32.4 58.5C37.8 53.4 44.85 50.7 52.35 51.15C66.15 51.75 77.4 63.15 78 77.1C78.15 82.2 76.95 87.3 74.4 91.8L96 91.5C98.55 91.5 100.5 93.45 100.5 96L100.5 117.6C100.5 120.9 98.7 123.9 96 125.4C93.15 127.05 89.85 127.05 87.15 125.4C84.15 123.75 80.85 122.85 77.4 123L77.4 123C68.1 123.3 60.6 130.8 60.15 140.1C59.85 145.05 61.65 149.85 65.1 153.45C68.55 157.05 73.2 159 78.15 159C81.3 159 84.45 158.1 87.15 156.6C89.85 154.95 93.3 154.95 96 156.6C98.85 158.25 100.5 161.25 100.5 164.4L100.5 186C100.5 188.55 98.55 190.5 96 190.5L96 190.5ZM10.5 100.5L10.5 171C10.5 176.85 15.15 181.5 21 181.5L91.5 181.5L91.5 164.4C87.45 166.8 82.8 168 78 168C70.5 168 63.6 165 58.5 159.6C53.4 154.2 50.7 147.15 51.15 139.65C51.75 125.85 63.15 114.6 77.1 114L77.1 114C82.2 113.85 87.3 115.05 91.8 117.6L91.5 100.5L74.4 100.5C71.1 100.5 68.1 98.7 66.6 96C65.1 93.3 64.95 89.85 66.6 87.15C68.25 84.15 69.15 80.85 69 77.4C68.7 68.1 61.2 60.6 51.9 60.15C46.95 59.85 42.15 61.65 38.55 65.1C34.95 68.4 33 73.05 33 78C33 81.15 33.9 84.3 35.4 87C37.05 89.7 37.05 93.15 35.4 95.85C33.75 98.55 30.75 100.35 27.6 100.35L10.5 100.35L10.5 100.5Z" id="Shape" fill="#71C2FF" fill-rule="evenodd" stroke="none" />
      <path d="M171 1.5L96 1.5C93.45 1.5 91.5 3.45 91.5 6L91.5 27.6C91.5 30.9 93.3 33.9 96 35.4C98.85 37.05 102.15 37.05 104.85 35.4C107.55 33.75 110.7 33 113.85 33C118.8 33 123.45 34.95 126.9 38.55C130.35 42.15 132.15 46.8 131.85 51.9C131.4 61.2 123.75 68.7 114.6 69C111.15 69.15 107.85 68.25 104.85 66.6C102.15 64.95 98.7 64.95 96 66.6C93.15 68.25 91.5 71.25 91.5 74.4L91.5 81C91.5 83.55 93.45 85.5 96 85.5C98.55 85.5 100.5 83.55 100.5 81L100.35 74.25C104.7 76.8 109.8 78.15 115.05 77.85C128.85 77.25 140.25 66 141 52.2C141.3 44.7 138.75 37.65 133.65 32.25C128.4 27 121.5 24 114 24C109.2 24 104.55 25.2 100.5 27.6L100.5 10.5L171 10.5C176.85 10.5 181.5 15.15 181.5 21L181.5 91.5L164.4 91.5C161.1 91.5 158.1 93.3 156.6 96C154.95 98.85 154.95 102.15 156.6 104.85C158.25 107.55 159 110.7 159 113.85C159 118.8 157.05 123.45 153.45 126.9C149.85 130.35 145.05 132.15 140.1 131.85C130.8 131.4 123.3 123.75 123 114.6C122.85 111.15 123.75 107.85 125.4 104.85C127.05 102.15 127.05 98.7 125.4 96C123.75 93.15 120.75 91.5 117.6 91.5L111 91.5C108.45 91.5 106.5 93.45 106.5 96C106.5 98.55 108.45 100.5 111 100.5L117.75 100.35C115.2 104.85 113.85 109.8 114.15 115.05C114.75 128.85 126 140.25 139.8 141C147.3 141.3 154.35 138.75 159.75 133.65C165.15 128.55 168.15 121.5 168.15 114.15C168.15 109.35 166.95 104.7 164.55 100.65L181.5 100.65L181.5 171.15C181.5 177 176.85 181.65 171 181.65L111 181.65C108.45 181.65 106.5 183.6 106.5 186.15C106.5 188.7 108.45 190.65 111 190.65L171 190.65C181.8 190.65 190.5 181.95 190.5 171.15L190.5 21C190.5 10.2 181.8 1.5 171 1.5L171 1.5Z" id="Shape" fill="#444B54" stroke="none" />
    </g>
  </g>
</svg>