<?xml version="1.0" encoding="utf-8"?>
<svg width="192px" height="192px" viewBox="0 0 192 192" version="1.1" xmlns:xlink="http://www.w3.org/1999/xlink" xmlns="http://www.w3.org/2000/svg">
  <defs>
    <path d="M16389 189L16494 189L16494 294L16389 294L16389 189Z" id="path_1" />
    <clipPath id="mask_1">
      <use xlink:href="#path_1" />
    </clipPath>
  </defs>
  <path d="M0 96C0 42.9807 42.9805 0 96 0C149.02 0 192 42.9807 192 96C192 149.019 149.02 192 96 192C42.9805 192 0 149.019 0 96Z" id="Ellipse" fill="#E8E8E8" fill-rule="evenodd" stroke="none" />
  <g id="Settings-icon" transform="translate(44 28)">
    <path d="M16389 189L16494 189L16494 294L16389 294L16389 189Z" id="Background" fill="none" fill-rule="evenodd" stroke="none" />
    <g clip-path="url(#mask_1)">
      <path d="M16475.6 248.5C16475.8 246.969 16476.1 245.438 16476.1 243.688C16476.1 241.938 16475.8 240.406 16475.6 238.875L16485.5 231.875C16486.3 231.219 16486.8 229.906 16486.1 228.813L16476.5 212.625C16475.8 211.531 16474.8 211.094 16473.7 211.75L16462.7 216.781C16460.1 214.813 16457.5 213.281 16454.4 211.969L16453.3 199.938C16453.1 198.844 16452.2 197.969 16451.1 197.969L16432.3 197.969C16431.2 197.969 16430.1 198.844 16430.1 199.938L16429 211.969C16426 213.281 16423.1 214.813 16420.7 216.781L16409.8 211.75C16408.7 211.313 16407.4 211.75 16406.9 212.625L16397.5 228.813C16396.9 229.906 16397.3 231.219 16398.2 231.875L16408 238.875C16407.8 240.406 16407.6 241.938 16407.6 243.688C16407.6 245.438 16407.8 246.969 16408 248.5L16397.8 255.5C16396.9 256.156 16396.4 257.469 16397.1 258.563L16406.5 274.75C16407.2 275.844 16408.3 276.281 16409.3 275.625L16420.3 270.594C16422.9 272.563 16425.5 274.094 16428.6 275.406L16429.7 287.438C16429.9 288.531 16430.8 289.406 16431.9 289.406L16450.7 289.406C16451.8 289.406 16452.9 288.531 16452.9 287.438L16454 275.406C16457 274.094 16459.9 272.563 16462.3 270.594L16473.2 275.625C16474.3 276.063 16475.6 275.625 16476.1 274.75L16485.5 258.563C16486.1 257.469 16485.7 256.156 16484.8 255.5L16475.6 248.5L16475.6 248.5ZM16441.5 265.563C16429.5 265.563 16419.6 255.719 16419.6 243.688C16419.6 231.656 16429.5 221.813 16441.5 221.813C16453.5 221.813 16463.4 231.656 16463.4 243.688C16463.4 255.719 16453.5 265.563 16441.5 265.563L16441.5 265.563Z" id="Shape" fill="#607D8B" fill-rule="evenodd" stroke="none" />
      <path d="M16441.5 217.437C16427.1 217.437 16415.3 229.25 16415.3 243.687C16415.3 258.125 16427.1 269.937 16441.5 269.937C16455.9 269.937 16467.8 258.125 16467.8 243.687C16467.8 229.25 16455.9 217.437 16441.5 217.437L16441.5 217.437ZM16441.5 254.625C16435.4 254.625 16430.6 249.812 16430.6 243.687C16430.6 237.562 16435.4 232.75 16441.5 232.75C16447.6 232.75 16452.4 237.562 16452.4 243.687C16452.4 249.812 16447.6 254.625 16441.5 254.625L16441.5 254.625Z" id="Shape" fill="#455A64" fill-rule="evenodd" stroke="none" />
    </g>
  </g>
  <g id="Issac-Tan" transform="translate(52 133)">
    <path d="M69.39 6.888L69.39 18.57L71.01 18.57L71.01 6.888L74.61 6.888L74.61 5.412L65.79 5.412L65.79 6.888L69.39 6.888ZM1.89 17.094L1.89 18.57L8.91 18.57L8.91 17.094L6.228 17.094L6.228 6.906L8.91 6.906L8.91 5.43L1.89 5.43L1.89 6.906L4.572 6.906L4.572 17.094L1.89 17.094ZM34.47 17.949Q35.37 18.75 36.936 18.75Q38.322 18.75 39.159 18.12Q39.8885 17.5709 39.9822 16.68L39.996 16.68L39.996 18.57L41.58 18.57L41.58 11.766Q41.58 10.254 40.59 9.372Q39.6 8.49 37.89 8.49Q36.324 8.49 35.28 9.246Q34.236 10.002 34.074 11.28L35.694 11.28Q35.784 10.65 36.378 10.281Q36.972 9.912 37.854 9.912Q38.862 9.912 39.411 10.407Q39.96 10.902 39.96 11.82L39.96 12.81L36.9 12.81Q35.37 12.81 34.47 13.602Q33.57 14.394 33.57 15.78Q33.57 17.148 34.47 17.949ZM48.672 18.75Q47.484 18.75 46.593 18.3Q45.702 17.85 45.216 16.995Q44.73 16.14 44.73 14.97L44.73 12.27Q44.73 11.082 45.216 10.236Q45.702 9.39 46.593 8.94Q47.484 8.49 48.672 8.49Q50.382 8.49 51.426 9.408Q52.47 10.326 52.524 11.91L50.904 11.91Q50.85 10.956 50.265 10.443Q49.68 9.93 48.672 9.93Q47.61 9.93 46.98 10.533Q46.35 11.136 46.35 12.252L46.35 14.97Q46.35 16.086 46.98 16.698Q47.61 17.31 48.672 17.31Q49.68 17.31 50.265 16.788Q50.85 16.266 50.904 15.33L52.524 15.33Q52.47 16.914 51.426 17.832Q50.382 18.75 48.672 18.75ZM80.136 18.75Q78.57 18.75 77.67 17.949Q76.77 17.148 76.77 15.78Q76.77 14.394 77.67 13.602Q78.57 12.81 80.1 12.81L83.16 12.81L83.16 11.82Q83.16 10.902 82.611 10.407Q82.062 9.912 81.054 9.912Q80.172 9.912 79.578 10.281Q78.984 10.65 78.894 11.28L77.274 11.28Q77.436 10.002 78.48 9.246Q79.524 8.49 81.09 8.49Q82.8 8.49 83.79 9.372Q84.78 10.254 84.78 11.766L84.78 18.57L83.196 18.57L83.196 16.68L83.1822 16.68Q83.0885 17.5709 82.359 18.12Q81.522 18.75 80.136 18.75ZM88.056 8.67L88.056 18.57L89.676 18.57L89.676 12.27Q89.676 11.118 90.261 10.506Q90.846 9.894 91.854 9.894Q92.826 9.894 93.393 10.461Q93.96 11.028 93.96 12.09L93.96 18.57L95.58 18.57L95.58 11.91Q95.58 10.326 94.698 9.408Q93.816 8.49 92.322 8.49Q91.08 8.49 90.378 9.129Q89.7939 9.66069 89.6958 10.56L89.676 10.56L89.676 8.67L88.056 8.67ZM14.139 18.399Q14.886 18.714 15.894 18.714L16.65 18.714Q18.414 18.714 19.287 17.931Q20.16 17.148 20.16 15.78Q20.16 14.484 19.431 13.8Q18.702 13.116 17.1 12.864L15.768 12.648Q14.994 12.522 14.634 12.234Q14.274 11.946 14.274 11.334Q14.274 10.65 14.697 10.308Q15.12 9.966 16.038 9.966L16.722 9.966Q17.46 9.966 17.892 10.245Q18.324 10.524 18.432 10.992L20.052 10.992Q19.872 9.858 19.008 9.192Q18.144 8.526 16.722 8.526L16.038 8.526Q14.346 8.526 13.5 9.255Q12.654 9.984 12.654 11.316Q12.654 12.576 13.365 13.233Q14.076 13.89 15.534 14.142L16.866 14.358Q17.694 14.484 18.117 14.853Q18.54 15.222 18.54 15.852Q18.54 16.5 18.072 16.887Q17.604 17.274 16.65 17.274L15.894 17.274Q15.102 17.274 14.625 16.968Q14.148 16.662 14.04 16.14L12.42 16.14Q12.51 16.932 12.951 17.508Q13.392 18.084 14.139 18.399ZM26.694 18.714Q25.686 18.714 24.939 18.399Q24.192 18.084 23.751 17.508Q23.31 16.932 23.22 16.14L24.84 16.14Q24.948 16.662 25.425 16.968Q25.902 17.274 26.694 17.274L27.45 17.274Q28.404 17.274 28.872 16.887Q29.34 16.5 29.34 15.852Q29.34 15.222 28.917 14.853Q28.494 14.484 27.666 14.358L26.334 14.142Q24.876 13.89 24.165 13.233Q23.454 12.576 23.454 11.316Q23.454 9.984 24.3 9.255Q25.146 8.526 26.838 8.526L27.522 8.526Q28.944 8.526 29.808 9.192Q30.672 9.858 30.852 10.992L29.232 10.992Q29.124 10.524 28.692 10.245Q28.26 9.966 27.522 9.966L26.838 9.966Q25.92 9.966 25.497 10.308Q25.074 10.65 25.074 11.334Q25.074 11.946 25.434 12.234Q25.794 12.522 26.568 12.648L27.9 12.864Q29.502 13.116 30.231 13.8Q30.96 14.484 30.96 15.78Q30.96 17.148 30.087 17.931Q29.214 18.714 27.45 18.714L26.694 18.714ZM39.222 16.896Q38.484 17.472 37.332 17.472Q36.324 17.472 35.757 16.995Q35.19 16.518 35.19 15.69Q35.19 14.916 35.658 14.466Q36.126 14.016 36.936 14.016L39.96 14.016L39.96 15.42Q39.96 16.32 39.222 16.896ZM80.532 17.472Q81.684 17.472 82.422 16.896Q83.16 16.32 83.16 15.42L83.16 14.016L80.136 14.016Q79.326 14.016 78.858 14.466Q78.39 14.916 78.39 15.69Q78.39 16.518 78.957 16.995Q79.524 17.472 80.532 17.472Z" />
  </g>
</svg>